<?xml version="1.0" standalone="no"?>
<!DOCTYPE svg PUBLIC "-//W3C//DTD SVG 20010904//EN"
 "http://www.w3.org/TR/2001/REC-SVG-20010904/DTD/svg10.dtd">
<svg version="1.0" xmlns="http://www.w3.org/2000/svg"
 width="1080.000000pt" height="1080.000000pt" viewBox="0 0 1080.000000 1080.000000"
 preserveAspectRatio="xMidYMid meet">

<g transform="translate(0.000000,1080.000000) scale(0.100000,-0.100000)"
fill="#000000" stroke="none">
<path d="M3560 5985 l0 -3535 1185 0 1185 0 0 370 0 370 -810 0 -810 0 0 3165
0 3165 -375 0 -375 0 0 -3535z"/>
<path d="M6500 5975 l0 -3536 368 3 367 3 3 3533 2 3532 -370 0 -370 0 0
-3535z"/>
<path d="M4810 1730 l0 -210 35 0 35 0 0 117 0 117 55 -54 55 -54 55 54 55 54
0 -117 0 -117 35 0 35 0 0 210 c0 116 -4 210 -9 210 -4 0 -43 -40 -86 -90 -43
-49 -80 -90 -84 -90 -3 0 -41 41 -85 90 -43 50 -82 90 -87 90 -5 0 -9 -93 -9
-210z"/>
<path d="M3280 1725 l0 -205 100 0 100 0 0 40 0 40 -65 0 -65 0 0 165 0 165
-35 0 -35 0 0 -205z"/>
<path d="M3560 1725 l0 -205 35 0 35 0 0 205 0 205 -35 0 -35 0 0 -205z"/>
<path d="M3851 1915 c-83 -26 -131 -95 -131 -189 0 -144 123 -236 261 -194
l39 11 0 89 0 88 -40 0 -40 0 0 -60 c0 -58 -1 -60 -25 -60 -65 0 -115 55 -115
127 0 82 65 132 155 120 46 -7 55 1 55 48 0 36 -76 46 -159 20z"/>
<path d="M4120 1725 l0 -205 35 0 35 0 0 80 0 80 65 0 65 0 0 -80 0 -80 40 0
40 0 0 205 0 205 -40 0 -40 0 0 -85 0 -85 -65 0 -65 0 0 85 0 85 -35 0 -35 0
0 -205z"/>
<path d="M4460 1890 l0 -40 50 0 50 0 0 -165 0 -165 40 0 40 0 0 165 0 165 50
0 50 0 0 40 0 40 -140 0 -140 0 0 -40z"/>
<path d="M5270 1725 l0 -205 105 0 105 0 0 40 0 40 -65 0 -65 0 0 40 0 40 50
0 50 0 0 40 0 40 -50 0 -50 0 0 45 0 45 60 0 60 0 0 40 0 40 -100 0 -100 0 0
-205z"/>
<path d="M5520 1890 l0 -40 50 0 50 0 0 -165 0 -165 40 0 40 0 0 165 0 165 50
0 50 0 0 40 0 40 -140 0 -140 0 0 -40z"/>
<path d="M5870 1725 l0 -205 100 0 100 0 0 40 0 40 -65 0 -65 0 0 40 0 40 55
0 55 0 0 40 0 40 -55 0 -55 0 0 45 0 45 65 0 65 0 0 40 0 40 -100 0 -100 0 0
-205z"/>
<path d="M6160 1725 l0 -205 35 0 35 0 0 80 c0 79 0 80 25 80 21 0 31 -12 65
-80 l40 -80 41 0 c22 0 39 4 37 9 -1 5 -21 42 -42 83 l-39 73 37 37 c30 30 36
43 36 77 0 97 -49 131 -185 131 l-85 0 0 -205z m178 113 c7 -7 12 -21 12 -33
0 -33 -20 -45 -72 -45 l-48 0 0 45 0 45 48 0 c26 0 53 -5 60 -12z"/>
<path d="M6510 1725 l0 -205 35 0 35 0 0 80 0 80 65 0 65 0 0 -80 0 -80 40 0
40 0 0 205 0 205 -40 0 -40 0 0 -85 0 -85 -65 0 -65 0 0 85 0 85 -35 0 -35 0
0 -205z"/>
<path d="M6880 1783 c0 -121 3 -154 18 -182 50 -100 186 -106 249 -12 21 32
23 45 23 187 l0 154 -40 0 -40 0 0 -148 c0 -166 -6 -182 -67 -182 -56 0 -63
20 -63 183 l0 147 -40 0 -40 0 0 -147z"/>
<path d="M7270 1724 l0 -206 101 4 101 3 34 37 c41 46 46 100 13 142 -11 14
-16 26 -10 26 6 0 16 18 22 40 17 56 -1 114 -44 140 -26 16 -50 20 -124 20
l-93 0 0 -206z m178 114 c7 -7 12 -21 12 -33 0 -33 -20 -45 -72 -45 l-48 0 0
45 0 45 48 0 c26 0 53 -5 60 -12z m6 -180 c19 -31 -4 -53 -63 -56 l-51 -3 0
41 0 41 51 -3 c36 -2 55 -8 63 -20z"/>
</g>
</svg>
